# xmcd CD database file
#
# Track frame offsets:
#	150
#	13117
#	28970
#	36385
#	46575
#	57292
#	67274
#	81329
#	93103
#	107835
#	121515
#	139985
#	153176
#	163640
#	180706
#	193532
#
# Disc length: 2729 seconds
#
# Revision: 2
# Processed by: cddbd v1.4b41PL1 Copyright (c) Steve Scherf et al.
# Submitted via: Feurio! 1.50.2ß - http://www.feurio.com
#
DISCID=d40aa710
DTITLE=Various Artist - Country Love - CD2
DYEAR=1900
DGENRE=
TTITLE0=Kenny Rogers - Rubby Don't Take Your Love To Town
TTITLE1=Kitty Salton - You're  Still The One
TTITLE2=Dolly Parton - Puppy Love
TTITLE3=Bobby Clash - I Love You Because
TTITLE4=Kitty Wells - Searching
TTITLE5=Mike Farrison - Every Cowboys Dream
TTITLE6=Sam Maylon and The Rondels - Love On The Loose, Heart On The Run
TTITLE7=Waylon Jennings - Crying
TTITLE8=Mitch Schneider - Every Time I Get Around
TTITLE9=Indiana Collins - Draggin' My Chains
TTITLE10=Tina Turner - Lovin' Him was Easier
TTITLE11=Roy Barring - Blame It On Texas
TTITLE12=Hank Wells - Help Me Make It Through The Night
TTITLE13=Mary Swinger - You Better Think Twice
TTITLE14=Marsha Goodman - There Goes My Everything
TTITLE15=Johnny Cash - Cry Cry Cry
EXTD=
EXTT0=
EXTT1=
EXTT2=
EXTT3=
EXTT4=
EXTT5=
EXTT6=
EXTT7=
EXTT8=
EXTT9=
EXTT10=
EXTT11=
EXTT12=
EXTT13=
EXTT14=
EXTT15=
PLAYORDER=
